<svg height="511pt" viewBox="0 0 511 511.99896" width="511pt" xmlns="http://www.w3.org/2000/svg"><path d="m511.457031 233.167969c-6.101562-68.101563-38.351562-129.75-90.820312-173.59375-52.464844-43.839844-118.867188-64.628907-186.96875-58.53125-68.101563 6.097656-129.75 38.351562-173.59375 90.816406-43.84375 52.46875-64.628907 118.867187-58.53125 186.96875 6.097656 68.101563 38.351562 129.753906 90.816406 173.59375 47.214844 39.457031 105.707031 60.238281 166.574219 59.5625 6.769531-.078125 13.578125-.417969 20.394531-1.03125 46.621094-4.171875 91.101563-20.964844 128.632813-48.554687 8.898437-6.542969 10.808593-19.058594 4.265624-27.957032-6.542968-8.898437-19.058593-10.808594-27.957031-4.269531-3.234375 2.382813-6.535156 4.660156-9.894531 6.847656l-93.347656-91.296875 172.535156-1.917968c-2.363281 5.273437-4.933594 10.476562-7.730469 15.59375-5.296875 9.691406-1.730469 21.84375 7.960938 27.136718 9.695312 5.296875 21.84375 1.730469 27.140625-7.960937 24.472656-44.800781 35.027344-95.082031 30.523437-145.40625zm-72.234375-92.496094-90.972656 93.019531-1.9375-174.207031c17.308594 7.941406 33.667969 18.242187 48.679688 30.78125 17.523437 14.644531 32.359374 31.648437 44.230468 50.40625zm-201.988281-99.792969c23.449219-2.097656 46.65625-.417968 68.925781 4.820313l1.460938 131.625-126.574219-123.789063c17.859375-6.625 36.710937-10.910156 56.1875-12.65625zm-146.46875 76.628906c15.097656-18.066406 32.695313-33.285156 52.144531-45.332031l96.128906 94.019531-179.960937 2c8.058594-18.050781 18.664063-35.101562 31.6875-50.6875zm-35.949219 216.003907c-7.066406-18.464844-11.625-38.019531-13.4375-58.25-2.035156-22.746094-.503906-45.261719 4.367188-66.917969l132.929687-1.476562zm18.960938 37.816406 95.914062-98.074219 2.019532 181.492188c-19.171876-8.207032-37.25-19.265625-53.703126-33.011719-17.523437-14.644531-32.363281-31.648437-44.230468-50.40625zm201.984375 99.792969c-21.695313 1.9375-43.183594.644531-63.910157-3.707032l-1.5-134.867187 126.675782 123.890625c-19.472656 7.8125-40.105469 12.789062-61.265625 14.683594zm-66.039063-195.136719-.480468-43.171875 25.992187-26.574219 44.242187-.492187 28.773438 28.140625.449219 40.242187-30.9375 31.632813-37.171875.414062zm124.601563 29.148437 123.859375-126.644531c7.0625 18.464844 11.625 38.015625 13.433594 58.25 2.019531 22.535157.449218 45.070313-4.570313 66.917969zm0 0"/></svg>