<svg height="512pt" viewBox="0 0 512 512.00103" width="512pt" xmlns="http://www.w3.org/2000/svg"><path d="m508.125 80.03125c7.746094-27.039062 3.800781-50.140625-11.109375-65.046875-14.90625-14.9101562-38.007813-18.855469-65.046875-11.109375-23.96875 6.867188-48.945312 22.421875-70.328125 43.808594-.386719.386718-.757813.777344-1.136719 1.167968l-75.121094-7.761718c-4.492187-.460938-8.953124 1.121094-12.144531 4.3125l-268.84375 268.84375c-5.859375 5.855468-5.859375 15.351562 0 21.210937l172.148438 172.148438c2.8125 2.816406 6.628906 4.394531 10.605469 4.394531 3.980468 0 7.792968-1.578125 10.605468-4.394531l268.84375-268.839844c3.191406-3.191406 4.777344-7.65625 4.3125-12.148437l-7.761718-75.113282c.390624-.378906.785156-.757812 1.167968-1.140625 21.386719-21.386719 36.941406-46.363281 43.808594-70.332031zm-320.976562 395.757812-150.9375-150.9375 253.1875-253.1875 51.464843 5.316407c-6.023437 12.089843-9.972656 24.773437-12.527343 36.847656-11.367188 2.15625-22.230469 7.621094-31.011719 16.402344-23.28125 23.28125-23.28125 61.164062 0 84.445312 11.640625 11.640625 26.929687 17.460938 42.222656 17.460938 15.289063 0 30.582031-5.820313 42.222656-17.460938 23.28125-23.28125 23.28125-61.164062 0-84.445312-6.746093-6.746094-14.722656-11.523438-23.207031-14.359375 2.910156-12.132813 7.566406-24.605469 14.910156-35.519532l52.726563 5.449219 14.136719 136.800781zm137.484374-301.742187c.820313 7.695313 7.324219 13.40625 14.894532 13.40625.53125 0 1.070312-.027344 1.609375-.085937 8.238281-.878907 14.203125-8.269532 13.324219-16.503907-.027344-.257812-1.015626-10.160156-.25-24.246093 2.273437 1.289062 4.410156 2.890624 6.34375 4.824218 11.585937 11.585938 11.585937 30.4375 0 42.023438-11.585938 11.582031-30.433594 11.582031-42.019532 0-11.585937-11.585938-11.585937-30.4375 0-42.023438 1.730469-1.726562 3.621094-3.191406 5.628906-4.40625-.714843 15.21875.34375 25.835938.46875 27.011719zm130.152344-103.457031c-.726562-7.0625-6.3125-12.644532-13.375-13.375l-40.25-4.160156c12.863282-9.589844 26.421875-16.71875 39.070313-20.339844 15.851562-4.542969 28.820312-3.273438 35.574219 3.480468 6.753906 6.753907 8.023437 19.722657 3.484374 35.574219-3.625 12.648438-10.753906 26.207031-20.34375 39.070313zm0 0"/><path d="m264.164062 277.839844-86.976562 86.976562c-5.855469 5.855469-5.855469 15.351563 0 21.210938 2.929688 2.929687 6.769531 4.394531 10.605469 4.394531 3.839843 0 7.679687-1.464844 10.605469-4.394531l86.976562-86.972656c5.855469-5.859376 5.855469-15.355469 0-21.214844-5.859375-5.855469-15.355469-5.855469-21.210938 0zm0 0"/><path d="m234.160156 226.625c-5.859375-5.855469-15.355468-5.855469-21.214844 0l-86.972656 86.976562c-5.859375 5.855469-5.859375 15.351563 0 21.210938 2.929688 2.929688 6.765625 4.394531 10.605469 4.394531 3.835937 0 7.675781-1.464843 10.605469-4.394531l86.972656-86.976562c5.859375-5.855469 5.859375-15.351563.003906-21.210938zm0 0"/></svg>