<svg id="Capa_1" enable-background="new 0 0 512 512" height="512" viewBox="0 0 512 512" width="512" xmlns="http://www.w3.org/2000/svg"><path d="m467 51.551h-422c-24.813 0-45 20.187-45 45v318.898c0 24.813 20.187 45 45 45h422c24.813 0 45-20.187 45-45v-318.898c0-24.813-20.187-45-45-45zm15 363.898c0 8.271-6.729 15-15 15h-422c-8.271 0-15-6.729-15-15v-241.438h452zm0-271.438h-452v-47.46c0-8.271 6.729-15 15-15h422c8.271 0 15 6.729 15 15z"/><path d="m159.654 332.745c1.568 4.756 3.49 9.393 5.748 13.867-3.381 7.588-1.964 16.813 4.251 23.027l17.67 17.67c6.215 6.215 15.439 7.633 23.026 4.251 4.476 2.258 9.113 4.181 13.868 5.748 2.976 7.754 10.5 13.272 19.288 13.272h24.988c8.788 0 16.313-5.519 19.288-13.272 4.755-1.568 9.392-3.489 13.866-5.748 7.587 3.383 16.813 1.964 23.028-4.251l17.67-17.67c6.215-6.215 7.633-15.439 4.251-23.028 2.259-4.476 4.18-9.111 5.748-13.866 7.754-2.976 13.272-10.5 13.272-19.288v-24.988c0-8.789-5.52-16.313-13.272-19.289-1.568-4.757-3.49-9.393-5.747-13.866 3.38-7.587 1.963-16.812-4.252-23.028l-17.669-17.668c-3.899-3.901-9.086-6.049-14.602-6.049-2.957 0-5.819.617-8.439 1.791-4.472-2.255-9.103-4.174-13.854-5.741-2.976-7.754-10.5-13.273-19.288-13.273h-24.988c-8.788 0-16.313 5.519-19.288 13.273-4.751 1.566-9.384 3.486-13.854 5.741-2.62-1.173-5.482-1.791-8.439-1.791-5.516 0-10.702 2.148-14.601 6.048l-17.671 17.671c-6.215 6.216-7.631 15.44-4.25 23.027-2.259 4.475-4.18 9.111-5.748 13.866-7.754 2.977-13.272 10.5-13.272 19.289v24.988c0 8.787 5.518 16.312 13.272 19.287zm16.728-37.171c5.103-2.599 9.047-7.275 10.597-13.079 1.612-6.049 4.024-11.866 7.173-17.297 3.007-5.191 3.521-11.284 1.745-16.729l7.61-7.61c5.447 1.776 11.541 1.262 16.731-1.747 5.429-3.146 11.247-5.559 17.295-7.172 5.803-1.547 10.48-5.493 13.079-10.596h10.775c2.599 5.103 7.276 9.048 13.079 10.596 6.048 1.613 11.866 4.025 17.295 7.172 5.189 3.008 11.284 3.522 16.731 1.747l7.611 7.61c-1.775 5.445-1.262 11.54 1.747 16.734 3.146 5.426 5.558 11.243 7.171 17.296 1.549 5.801 5.494 10.477 10.596 13.075v10.776c-5.103 2.6-9.048 7.276-10.597 13.08-1.611 6.047-4.024 11.865-7.173 17.296-3.007 5.19-3.521 11.285-1.745 16.729l-7.609 7.61c-5.449-1.778-11.543-1.262-16.733 1.747-5.428 3.146-11.246 5.56-17.297 7.172-5.801 1.549-10.478 5.494-13.076 10.596h-10.776c-2.599-5.103-7.275-9.047-13.079-10.597-6.047-1.611-11.865-4.024-17.292-7.17-5.19-3.01-11.286-3.525-16.733-1.747l-7.61-7.611c1.775-5.445 1.261-11.54-1.747-16.732-3.146-5.428-5.56-11.246-7.172-17.296-1.548-5.802-5.493-10.479-10.596-13.077z"/><path d="m256 348.719c26.333 0 47.756-21.423 47.756-47.756s-21.423-47.756-47.756-47.756-47.756 21.423-47.756 47.756 21.423 47.756 47.756 47.756zm0-65.512c9.791 0 17.756 7.965 17.756 17.756s-7.965 17.756-17.756 17.756-17.756-7.965-17.756-17.756 7.965-17.756 17.756-17.756z"/><path d="m85.463 97.781h-12.411c-8.284 0-15 6.716-15 15s6.716 15 15 15h12.411c8.284 0 15-6.716 15-15s-6.716-15-15-15z"/><path d="m154.758 97.781h-12.411c-8.284 0-15 6.716-15 15s6.716 15 15 15h12.411c8.284 0 15-6.716 15-15s-6.716-15-15-15z"/><path d="m224.053 97.781h-12.411c-8.284 0-15 6.716-15 15s6.716 15 15 15h12.411c8.284 0 15-6.716 15-15s-6.716-15-15-15z"/></svg>